<svg xmlns="http://www.w3.org/2000/svg" xmlns:xlink="http://www.w3.org/1999/xlink" width="100" zoomAndPan="magnify" viewBox="0 0 75 30.000001" height="40" preserveAspectRatio="xMidYMid meet" version="1.0"><defs><g/><clipPath id="1accf502b5"><path d="M 4 0.867188 L 27 0.867188 L 27 15 L 4 15 Z M 4 0.867188 " clip-rule="nonzero"/></clipPath><clipPath id="3215177102"><path d="M 4 1 L 28 1 L 28 19.734375 L 4 19.734375 Z M 4 1 " clip-rule="nonzero"/></clipPath><clipPath id="ba37b19b11"><path d="M 15 0.867188 L 28.210938 0.867188 L 28.210938 19.734375 L 15 19.734375 Z M 15 0.867188 " clip-rule="nonzero"/></clipPath><clipPath id="34af26c74c"><path d="M 2.082031 0.867188 L 19 0.867188 L 19 19.734375 L 2.082031 19.734375 Z M 2.082031 0.867188 " clip-rule="nonzero"/></clipPath><clipPath id="17609cdbed"><path d="M 12 6 L 27 6 L 27 19.734375 L 12 19.734375 Z M 12 6 " clip-rule="nonzero"/></clipPath><clipPath id="c27816dcaf"><path d="M 23 8 L 28.210938 8 L 28.210938 19.734375 L 23 19.734375 Z M 23 8 " clip-rule="nonzero"/></clipPath></defs><g clip-path="url(#1accf502b5)"><path stroke-linecap="butt" transform="matrix(0.725806, 0, 0, 0.725806, -9.288635, -13.813302)" fill="none" stroke-linejoin="miter" d="M 38.593334 27.771938 C 37.979793 26.862389 37.328577 26.135827 36.639689 25.586868 C 35.53639 24.70423 34.325452 24.526625 33.001494 25.043292 C 31.758265 25.538431 30.88639 26.453362 30.380487 27.793466 " stroke="#b91668" stroke-width="2" stroke-opacity="1" stroke-miterlimit="4"/></g><g clip-path="url(#3215177102)"><path stroke-linecap="butt" transform="matrix(0.725806, 0, 0, 0.725806, -9.288635, -13.813302)" fill="none" stroke-linejoin="miter" d="M 38.894723 31.749195 C 37.872154 33.519855 36.795765 35.355098 35.665557 37.249542 C 35.062779 38.250584 34.460001 39.111695 33.857223 39.822112 C 32.985348 40.850063 31.769029 41.076105 30.213647 40.489473 " stroke="#b91668" stroke-width="2" stroke-opacity="1" stroke-miterlimit="4"/></g><g clip-path="url(#ba37b19b11)"><path stroke-linecap="butt" transform="matrix(0.725806, 0, 0, 0.725806, -9.288635, -13.813302)" fill="none" stroke-linejoin="miter" d="M 49.228057 34.224889 C 48.899758 33.81048 48.646807 33.363778 48.453057 32.884785 C 48.200105 32.238952 47.979446 31.835306 47.79646 31.668466 C 47.301321 31.221764 46.736216 31.194855 46.095765 31.582355 C 45.61139 31.87298 45.175453 32.308917 44.793334 32.890167 " stroke="#b91668" stroke-width="2" stroke-opacity="1" stroke-miterlimit="4"/></g><g clip-path="url(#34af26c74c)"><path fill="#08358f" d="M 18.722656 6.34375 C 18.277344 5.683594 17.804688 5.15625 17.304688 4.757812 C 16.503906 4.117188 15.625 3.988281 14.664062 4.363281 C 13.761719 4.722656 13.128906 5.386719 12.761719 6.359375 C 12.25 6.992188 11.828125 7.839844 11.5 8.894531 C 10.746094 11.332031 10.261719 13.375 10.054688 15.015625 C 9.785156 17.175781 9.195312 19.101562 6.847656 19.699219 C 5.429688 20.058594 3.820312 19.355469 3.066406 18.09375 C 2.410156 17 2.164062 15.773438 2.324219 14.417969 C 2.457031 13.296875 2.757812 12.160156 3.222656 11.015625 C 4.53125 7.8125 6.523438 5.164062 9.203125 3.066406 C 10.609375 1.96875 12.578125 0.871094 14.320312 0.898438 C 17.320312 0.945312 18.429688 3.683594 18.722656 6.34375 Z M 18.722656 6.34375 " fill-opacity="1" fill-rule="nonzero"/></g><path fill="#002266" d="M 18.722656 6.34375 L 18.941406 9.230469 C 18.199219 10.515625 17.417969 11.847656 16.597656 13.222656 C 16.160156 13.949219 15.722656 14.574219 15.285156 15.089844 C 14.652344 15.835938 13.769531 16 12.640625 15.574219 C 13.230469 12.65625 13.269531 9.582031 12.761719 6.359375 C 13.128906 5.386719 13.761719 4.722656 14.664062 4.363281 C 15.625 3.988281 16.503906 4.117188 17.304688 4.757812 C 17.804688 5.15625 18.277344 5.683594 18.722656 6.34375 Z M 18.722656 6.34375 " fill-opacity="1" fill-rule="nonzero"/><g clip-path="url(#17609cdbed)"><path fill="#08358f" d="M 26.441406 11.027344 C 26.203125 10.726562 26.019531 10.402344 25.878906 10.054688 C 25.695312 9.585938 25.535156 9.292969 25.402344 9.171875 C 25.042969 8.847656 24.632812 8.828125 24.167969 9.109375 C 23.816406 9.320312 23.5 9.636719 23.222656 10.058594 C 22.28125 11.453125 21.46875 12.886719 20.785156 14.355469 C 20.027344 15.984375 19.472656 17.042969 18.660156 18.371094 C 18.230469 19.070312 17.714844 19.757812 16.894531 19.933594 C 16.625 19.992188 16.335938 19.996094 16.027344 19.949219 C 13.6875 19.578125 12.5625 18.117188 12.640625 15.574219 C 13.769531 16 14.652344 15.835938 15.285156 15.089844 C 15.722656 14.574219 16.160156 13.949219 16.597656 13.222656 C 17.417969 11.847656 18.199219 10.515625 18.941406 9.230469 C 19.578125 8.355469 20.105469 7.703125 20.519531 7.277344 C 21.300781 6.472656 22.511719 6.105469 23.65625 6.417969 C 24.554688 6.664062 25.214844 7.140625 25.632812 7.839844 C 26.113281 8.640625 26.378906 9.703125 26.441406 11.027344 Z M 26.441406 11.027344 " fill-opacity="1" fill-rule="nonzero"/></g><g clip-path="url(#c27816dcaf)"><path fill="#002266" d="M 26.441406 11.027344 C 26.464844 11.878906 26.488281 12.785156 26.515625 13.746094 C 26.578125 15.855469 27.078125 17.851562 28.019531 19.730469 C 28.058594 19.800781 28.035156 19.839844 27.953125 19.84375 C 26.40625 19.898438 25.25 19.445312 24.652344 17.902344 C 24.398438 17.242188 24.230469 16.492188 24.15625 15.652344 C 23.992188 13.863281 23.683594 12 23.222656 10.058594 C 23.5 9.636719 23.816406 9.320312 24.167969 9.109375 C 24.632812 8.828125 25.042969 8.847656 25.402344 9.171875 C 25.535156 9.292969 25.695312 9.585938 25.878906 10.054688 C 26.019531 10.402344 26.203125 10.726562 26.441406 11.027344 Z M 26.441406 11.027344 " fill-opacity="1" fill-rule="nonzero"/></g><g fill="#1a1a1a" fill-opacity="1"><g transform="translate(27.609684, 17.914126)"><g><path d="M 2.40625 -5.5 C 2.289062 -5.5 2.234375 -5.242188 2.234375 -4.734375 C 2.234375 -3.660156 2.550781 -2.753906 3.1875 -2.015625 C 3.832031 -1.285156 4.628906 -0.921875 5.578125 -0.921875 C 6.523438 -0.921875 7.4375 -1.332031 8.3125 -2.15625 C 8.332031 -2.175781 8.351562 -2.1875 8.375 -2.1875 L 8.421875 -2.1875 C 8.460938 -2.1875 8.5 -2.148438 8.53125 -2.078125 C 8.570312 -2.015625 8.613281 -1.972656 8.65625 -1.953125 C 7.84375 -0.972656 6.890625 -0.296875 5.796875 0.078125 C 5.421875 0.210938 4.992188 0.28125 4.515625 0.28125 C 4.046875 0.28125 3.566406 0.148438 3.078125 -0.109375 C 2.597656 -0.367188 2.1875 -0.710938 1.84375 -1.140625 C 1.101562 -2.023438 0.734375 -3.125 0.734375 -4.4375 C 0.734375 -5.757812 1.132812 -6.960938 1.9375 -8.046875 C 2.738281 -9.128906 3.84375 -9.671875 5.25 -9.671875 C 6.257812 -9.671875 7.082031 -9.21875 7.71875 -8.3125 C 8.363281 -7.414062 8.6875 -6.628906 8.6875 -5.953125 C 8.6875 -5.648438 8.613281 -5.5 8.46875 -5.5 Z M 2.53125 -6.5 C 2.53125 -6.363281 2.59375 -6.296875 2.71875 -6.296875 L 6.640625 -6.296875 C 6.828125 -6.296875 6.921875 -6.40625 6.921875 -6.625 C 6.921875 -7.125 6.695312 -7.632812 6.25 -8.15625 C 5.800781 -8.6875 5.304688 -8.953125 4.765625 -8.953125 C 4.242188 -8.953125 3.769531 -8.710938 3.34375 -8.234375 C 2.914062 -7.765625 2.644531 -7.226562 2.53125 -6.625 Z M 2.53125 -6.5 "/></g></g><g transform="translate(37.314008, 17.914126)"><g><path d="M 8.390625 -3.28125 L 8.375 -5.484375 C 8.375 -6.390625 8.296875 -7.019531 8.140625 -7.375 C 7.984375 -7.738281 7.785156 -8.007812 7.546875 -8.1875 C 7.316406 -8.375 7 -8.46875 6.59375 -8.46875 C 6.195312 -8.46875 5.351562 -8.15625 4.0625 -7.53125 C 3.882812 -7.425781 3.789062 -7.332031 3.78125 -7.25 L 3.78125 -1.625 C 3.78125 -0.925781 4.160156 -0.523438 4.921875 -0.421875 C 5.242188 -0.367188 5.40625 -0.285156 5.40625 -0.171875 C 5.40625 -0.0664062 5.367188 -0.0078125 5.296875 0 L 0.640625 0 C 0.578125 -0.0078125 0.546875 -0.0546875 0.546875 -0.140625 C 0.546875 -0.273438 0.707031 -0.367188 1.03125 -0.421875 C 1.78125 -0.523438 2.15625 -0.925781 2.15625 -1.625 L 2.15625 -7.625 C 2.15625 -7.914062 2 -8.113281 1.6875 -8.21875 C 1.539062 -8.269531 1.382812 -8.3125 1.21875 -8.34375 C 1.0625 -8.375 0.9375 -8.398438 0.84375 -8.421875 C 0.75 -8.453125 0.691406 -8.476562 0.671875 -8.5 C 0.648438 -8.53125 0.640625 -8.582031 0.640625 -8.65625 C 0.640625 -8.738281 0.691406 -8.8125 0.796875 -8.875 L 3.453125 -10.125 C 3.535156 -10.164062 3.585938 -10.1875 3.609375 -10.1875 C 3.722656 -10.1875 3.78125 -10.101562 3.78125 -9.9375 L 3.78125 -8.3125 C 3.800781 -8.238281 3.832031 -8.203125 3.875 -8.203125 C 3.914062 -8.203125 4.066406 -8.265625 4.328125 -8.390625 C 4.921875 -8.691406 5.519531 -8.976562 6.125 -9.25 C 6.726562 -9.53125 7.226562 -9.671875 7.625 -9.671875 C 9.238281 -9.671875 10.046875 -8.207031 10.046875 -5.28125 L 9.953125 -2.234375 L 9.953125 -1.625 C 9.953125 -1.082031 10.222656 -0.726562 10.765625 -0.5625 C 10.992188 -0.488281 11.210938 -0.4375 11.421875 -0.40625 C 11.628906 -0.375 11.765625 -0.34375 11.828125 -0.3125 C 11.898438 -0.28125 11.9375 -0.222656 11.9375 -0.140625 C 11.9375 -0.0546875 11.898438 -0.0078125 11.828125 0 L 6.8125 0 C 6.738281 -0.0078125 6.703125 -0.0546875 6.703125 -0.140625 C 6.703125 -0.273438 6.863281 -0.367188 7.1875 -0.421875 C 7.9375 -0.523438 8.3125 -0.957031 8.3125 -1.71875 C 8.363281 -2.0625 8.390625 -2.582031 8.390625 -3.28125 Z M 8.390625 -3.28125 "/></g></g><g transform="translate(49.460066, 17.914126)"><g><path d="M 3.265625 -8.03125 C 3.222656 -8.03125 3.203125 -8 3.203125 -7.9375 L 3.203125 -2.171875 C 3.203125 -1.753906 3.289062 -1.425781 3.46875 -1.1875 C 3.65625 -0.945312 3.890625 -0.828125 4.171875 -0.828125 C 4.460938 -0.828125 4.710938 -0.875 4.921875 -0.96875 C 5.140625 -1.0625 5.328125 -1.164062 5.484375 -1.28125 C 5.640625 -1.394531 5.78125 -1.5 5.90625 -1.59375 C 6.03125 -1.6875 6.140625 -1.734375 6.234375 -1.734375 C 6.335938 -1.734375 6.390625 -1.707031 6.390625 -1.65625 C 6.390625 -1.488281 6.367188 -1.382812 6.328125 -1.34375 C 5.492188 -0.257812 4.6875 0.28125 3.90625 0.28125 C 3.132812 0.28125 2.550781 0.0351562 2.15625 -0.453125 C 1.769531 -0.941406 1.578125 -1.53125 1.578125 -2.21875 L 1.578125 -8.03125 L 0.796875 -8.03125 C 0.597656 -8.03125 0.492188 -8.09375 0.484375 -8.21875 C 0.472656 -8.34375 0.492188 -8.421875 0.546875 -8.453125 C 0.910156 -8.691406 1.414062 -9.117188 2.0625 -9.734375 C 2.132812 -9.804688 2.226562 -9.914062 2.34375 -10.0625 C 2.46875 -10.21875 2.640625 -10.425781 2.859375 -10.6875 C 3.085938 -10.957031 3.257812 -11.09375 3.375 -11.09375 C 3.5 -11.09375 3.5625 -11.046875 3.5625 -10.953125 C 3.5625 -10.929688 3.441406 -10.472656 3.203125 -9.578125 C 3.203125 -9.453125 3.257812 -9.390625 3.375 -9.390625 L 6.03125 -9.390625 C 6.332031 -9.390625 6.484375 -8.957031 6.484375 -8.09375 C 6.484375 -8.050781 6.457031 -8.03125 6.40625 -8.03125 Z M 3.265625 -8.03125 "/></g></g><g transform="translate(56.211354, 17.914126)"><g><path d="M 7.1875 -1.71875 C 7.1875 -1.539062 7.269531 -1.394531 7.4375 -1.28125 C 7.601562 -1.175781 7.796875 -1.125 8.015625 -1.125 C 8.242188 -1.125 8.429688 -1.179688 8.578125 -1.296875 C 8.734375 -1.410156 8.835938 -1.46875 8.890625 -1.46875 C 8.941406 -1.46875 8.96875 -1.390625 8.96875 -1.234375 C 8.96875 -1.085938 8.898438 -0.960938 8.765625 -0.859375 C 7.722656 -0.0976562 7.015625 0.28125 6.640625 0.28125 C 6.203125 0.28125 5.84375 -0.179688 5.5625 -1.109375 C 5.539062 -1.171875 5.523438 -1.203125 5.515625 -1.203125 C 4.648438 -0.554688 4.101562 -0.164062 3.875 -0.03125 C 3.3125 0.289062 2.738281 0.34375 2.15625 0.125 C 1.582031 -0.09375 1.171875 -0.460938 0.921875 -0.984375 C 0.796875 -1.242188 0.734375 -1.523438 0.734375 -1.828125 C 0.734375 -2.421875 0.953125 -2.890625 1.390625 -3.234375 C 1.828125 -3.578125 2.660156 -3.910156 3.890625 -4.234375 C 4.304688 -4.347656 4.675781 -4.488281 5 -4.65625 C 5.332031 -4.832031 5.503906 -4.945312 5.515625 -5 C 5.535156 -5.050781 5.546875 -5.097656 5.546875 -5.140625 L 5.546875 -7.140625 C 5.546875 -7.921875 5.242188 -8.472656 4.640625 -8.796875 C 4.429688 -8.898438 4.1875 -8.953125 3.90625 -8.953125 C 3.625 -8.953125 3.335938 -8.835938 3.046875 -8.609375 C 2.765625 -8.390625 2.625 -8.078125 2.625 -7.671875 L 2.671875 -7.265625 C 2.628906 -7.179688 2.378906 -7.039062 1.921875 -6.84375 C 1.460938 -6.644531 1.195312 -6.539062 1.125 -6.53125 C 1.007812 -6.53125 0.953125 -6.664062 0.953125 -6.9375 C 0.953125 -7.207031 1.03125 -7.503906 1.1875 -7.828125 C 1.351562 -8.148438 1.582031 -8.445312 1.875 -8.71875 C 2.5625 -9.351562 3.34375 -9.671875 4.21875 -9.671875 C 5.09375 -9.671875 5.804688 -9.425781 6.359375 -8.9375 C 6.910156 -8.457031 7.1875 -7.882812 7.1875 -7.21875 Z M 2.375 -2.03125 C 2.375 -1.695312 2.5 -1.40625 2.75 -1.15625 C 3.007812 -0.90625 3.304688 -0.78125 3.640625 -0.78125 C 3.972656 -0.78125 4.375 -0.921875 4.84375 -1.203125 C 5.3125 -1.484375 5.546875 -1.773438 5.546875 -2.078125 L 5.546875 -4.203125 C 5.546875 -4.273438 5.53125 -4.3125 5.5 -4.3125 C 5.46875 -4.3125 5.441406 -4.304688 5.421875 -4.296875 L 3 -3.171875 C 2.75 -2.992188 2.582031 -2.84375 2.5 -2.71875 C 2.414062 -2.59375 2.375 -2.363281 2.375 -2.03125 Z M 2.375 -2.03125 "/></g></g><g transform="translate(65.446114, 17.914126)"><g><path d="M 4.578125 -0.390625 C 4.910156 -0.347656 5.078125 -0.265625 5.078125 -0.140625 C 5.078125 -0.0546875 5.039062 -0.0078125 4.96875 0 L 0.3125 0 C 0.238281 -0.0078125 0.203125 -0.0546875 0.203125 -0.140625 C 0.203125 -0.265625 0.367188 -0.347656 0.703125 -0.390625 C 1.453125 -0.503906 1.828125 -0.90625 1.828125 -1.59375 L 1.828125 -14.59375 C 1.828125 -14.894531 1.664062 -15.097656 1.34375 -15.203125 C 1.207031 -15.253906 1.054688 -15.296875 0.890625 -15.328125 C 0.734375 -15.359375 0.609375 -15.382812 0.515625 -15.40625 C 0.421875 -15.4375 0.359375 -15.460938 0.328125 -15.484375 C 0.304688 -15.515625 0.296875 -15.566406 0.296875 -15.640625 C 0.296875 -15.722656 0.347656 -15.796875 0.453125 -15.859375 L 3.125 -17.109375 C 3.207031 -17.148438 3.257812 -17.171875 3.28125 -17.171875 C 3.394531 -17.171875 3.453125 -17.085938 3.453125 -16.921875 L 3.453125 -1.59375 C 3.453125 -0.90625 3.828125 -0.503906 4.578125 -0.390625 Z M 4.578125 -0.390625 "/></g></g></g><g fill="#002266" fill-opacity="1"><g transform="translate(55.069954, 24.700135)"><g><path d="M 2.09375 -0.109375 C 2.09375 -0.0976562 2.085938 -0.078125 2.078125 -0.046875 C 2.078125 -0.015625 2.070312 0 2.0625 0 L 0.140625 0 C 0.128906 0 0.117188 -0.015625 0.109375 -0.046875 C 0.109375 -0.078125 0.109375 -0.0976562 0.109375 -0.109375 C 0.109375 -0.117188 0.109375 -0.140625 0.109375 -0.171875 C 0.117188 -0.203125 0.128906 -0.21875 0.140625 -0.21875 C 0.171875 -0.226562 0.21875 -0.238281 0.28125 -0.25 C 0.34375 -0.257812 0.398438 -0.273438 0.453125 -0.296875 C 0.515625 -0.328125 0.566406 -0.367188 0.609375 -0.421875 C 0.648438 -0.484375 0.671875 -0.566406 0.671875 -0.671875 L 0.671875 -5 C 0.671875 -5.050781 0.65625 -5.09375 0.625 -5.125 C 0.59375 -5.164062 0.550781 -5.191406 0.5 -5.203125 C 0.457031 -5.222656 0.40625 -5.238281 0.34375 -5.25 C 0.289062 -5.257812 0.238281 -5.269531 0.1875 -5.28125 C 0.175781 -5.289062 0.164062 -5.300781 0.15625 -5.3125 C 0.144531 -5.320312 0.140625 -5.335938 0.140625 -5.359375 C 0.140625 -5.367188 0.144531 -5.378906 0.15625 -5.390625 C 0.164062 -5.410156 0.179688 -5.425781 0.203125 -5.4375 L 1.40625 -6 C 1.414062 -6.007812 1.425781 -6.015625 1.4375 -6.015625 C 1.445312 -6.023438 1.457031 -6.03125 1.46875 -6.03125 C 1.507812 -6.03125 1.53125 -6 1.53125 -5.9375 L 1.53125 -2.828125 C 1.53125 -2.816406 1.53125 -2.800781 1.53125 -2.78125 C 1.53125 -2.757812 1.535156 -2.75 1.546875 -2.75 C 1.566406 -2.75 1.578125 -2.75 1.578125 -2.75 C 1.585938 -2.757812 1.601562 -2.773438 1.625 -2.796875 C 1.695312 -2.878906 1.769531 -2.953125 1.84375 -3.015625 C 1.914062 -3.085938 1.992188 -3.148438 2.078125 -3.203125 C 2.171875 -3.265625 2.269531 -3.3125 2.375 -3.34375 C 2.488281 -3.375 2.617188 -3.390625 2.765625 -3.390625 C 2.910156 -3.390625 3.054688 -3.367188 3.203125 -3.328125 C 3.359375 -3.296875 3.492188 -3.234375 3.609375 -3.140625 C 3.722656 -3.046875 3.816406 -2.910156 3.890625 -2.734375 C 3.960938 -2.566406 4 -2.347656 4 -2.078125 L 4 -0.671875 C 4 -0.566406 4.019531 -0.484375 4.0625 -0.421875 C 4.101562 -0.367188 4.148438 -0.328125 4.203125 -0.296875 C 4.265625 -0.273438 4.328125 -0.257812 4.390625 -0.25 C 4.453125 -0.238281 4.5 -0.226562 4.53125 -0.21875 C 4.539062 -0.21875 4.546875 -0.203125 4.546875 -0.171875 C 4.554688 -0.140625 4.5625 -0.117188 4.5625 -0.109375 C 4.5625 -0.0976562 4.554688 -0.078125 4.546875 -0.046875 C 4.546875 -0.015625 4.539062 0 4.53125 0 L 2.609375 0 C 2.597656 0 2.585938 -0.015625 2.578125 -0.046875 C 2.578125 -0.078125 2.578125 -0.0976562 2.578125 -0.109375 C 2.578125 -0.117188 2.578125 -0.140625 2.578125 -0.171875 C 2.585938 -0.203125 2.597656 -0.21875 2.609375 -0.21875 C 2.640625 -0.226562 2.6875 -0.238281 2.75 -0.25 C 2.8125 -0.257812 2.867188 -0.273438 2.921875 -0.296875 C 2.984375 -0.328125 3.035156 -0.367188 3.078125 -0.421875 C 3.117188 -0.484375 3.140625 -0.566406 3.140625 -0.671875 L 3.140625 -1.9375 C 3.140625 -2.070312 3.132812 -2.203125 3.125 -2.328125 C 3.125 -2.453125 3.101562 -2.5625 3.0625 -2.65625 C 3.019531 -2.75 2.953125 -2.820312 2.859375 -2.875 C 2.765625 -2.925781 2.628906 -2.953125 2.453125 -2.953125 C 2.367188 -2.953125 2.269531 -2.929688 2.15625 -2.890625 C 2.050781 -2.847656 1.953125 -2.789062 1.859375 -2.71875 C 1.765625 -2.644531 1.6875 -2.5625 1.625 -2.46875 C 1.5625 -2.375 1.53125 -2.273438 1.53125 -2.171875 L 1.53125 -0.671875 C 1.53125 -0.566406 1.550781 -0.484375 1.59375 -0.421875 C 1.632812 -0.367188 1.679688 -0.328125 1.734375 -0.296875 C 1.796875 -0.273438 1.859375 -0.257812 1.921875 -0.25 C 1.984375 -0.238281 2.03125 -0.226562 2.0625 -0.21875 C 2.070312 -0.21875 2.078125 -0.203125 2.078125 -0.171875 C 2.085938 -0.140625 2.09375 -0.117188 2.09375 -0.109375 Z M 2.09375 -0.109375 "/></g></g></g><g fill="#002266" fill-opacity="1"><g transform="translate(59.738958, 24.700135)"><g><path d="M 0.25 -1.484375 C 0.25 -1.765625 0.289062 -2.023438 0.375 -2.265625 C 0.457031 -2.515625 0.570312 -2.722656 0.71875 -2.890625 C 0.875 -3.066406 1.0625 -3.203125 1.28125 -3.296875 C 1.5 -3.398438 1.75 -3.453125 2.03125 -3.453125 C 2.113281 -3.453125 2.1875 -3.445312 2.25 -3.4375 C 2.3125 -3.425781 2.367188 -3.410156 2.421875 -3.390625 C 2.484375 -3.367188 2.535156 -3.34375 2.578125 -3.3125 C 2.628906 -3.289062 2.679688 -3.269531 2.734375 -3.25 C 2.785156 -3.21875 2.847656 -3.160156 2.921875 -3.078125 C 2.992188 -3.003906 3.0625 -2.914062 3.125 -2.8125 C 3.1875 -2.71875 3.238281 -2.613281 3.28125 -2.5 C 3.320312 -2.382812 3.34375 -2.273438 3.34375 -2.171875 C 3.34375 -2.140625 3.335938 -2.101562 3.328125 -2.0625 C 3.316406 -2.019531 3.296875 -2 3.265625 -2 L 1.109375 -2 C 1.078125 -2 1.054688 -1.976562 1.046875 -1.9375 C 1.046875 -1.894531 1.046875 -1.84375 1.046875 -1.78125 C 1.046875 -1.5625 1.078125 -1.367188 1.140625 -1.203125 C 1.203125 -1.035156 1.285156 -0.894531 1.390625 -0.78125 C 1.492188 -0.664062 1.613281 -0.578125 1.75 -0.515625 C 1.882812 -0.453125 2.023438 -0.421875 2.171875 -0.421875 C 2.273438 -0.421875 2.367188 -0.429688 2.453125 -0.453125 C 2.535156 -0.484375 2.617188 -0.519531 2.703125 -0.5625 C 2.785156 -0.601562 2.863281 -0.648438 2.9375 -0.703125 C 3.007812 -0.753906 3.078125 -0.804688 3.140625 -0.859375 C 3.148438 -0.859375 3.160156 -0.859375 3.171875 -0.859375 C 3.171875 -0.859375 3.175781 -0.851562 3.1875 -0.84375 C 3.207031 -0.820312 3.226562 -0.796875 3.25 -0.765625 C 3.28125 -0.742188 3.300781 -0.726562 3.3125 -0.71875 C 3.320312 -0.707031 3.328125 -0.695312 3.328125 -0.6875 C 3.328125 -0.6875 3.320312 -0.679688 3.3125 -0.671875 C 3.226562 -0.578125 3.125 -0.484375 3 -0.390625 C 2.882812 -0.296875 2.757812 -0.210938 2.625 -0.140625 C 2.5 -0.0664062 2.363281 -0.0078125 2.21875 0.03125 C 2.082031 0.0703125 1.953125 0.09375 1.828125 0.09375 C 1.578125 0.09375 1.351562 0.0507812 1.15625 -0.03125 C 0.96875 -0.125 0.804688 -0.242188 0.671875 -0.390625 C 0.535156 -0.546875 0.429688 -0.71875 0.359375 -0.90625 C 0.285156 -1.09375 0.25 -1.285156 0.25 -1.484375 Z M 2.40625 -2.28125 C 2.46875 -2.28125 2.5 -2.3125 2.5 -2.375 C 2.5 -2.46875 2.484375 -2.554688 2.453125 -2.640625 C 2.421875 -2.722656 2.375 -2.796875 2.3125 -2.859375 C 2.257812 -2.921875 2.191406 -2.96875 2.109375 -3 C 2.035156 -3.039062 1.953125 -3.0625 1.859375 -3.0625 C 1.742188 -3.0625 1.640625 -3.035156 1.546875 -2.984375 C 1.460938 -2.941406 1.390625 -2.882812 1.328125 -2.8125 C 1.265625 -2.738281 1.21875 -2.664062 1.1875 -2.59375 C 1.15625 -2.519531 1.140625 -2.457031 1.140625 -2.40625 C 1.140625 -2.363281 1.144531 -2.332031 1.15625 -2.3125 C 1.164062 -2.289062 1.179688 -2.28125 1.203125 -2.28125 Z M 2.40625 -2.28125 "/></g></g></g><g fill="#002266" fill-opacity="1"><g transform="translate(63.449279, 24.700135)"><g><path d="M 2.0625 -0.109375 C 2.0625 -0.0976562 2.054688 -0.078125 2.046875 -0.046875 C 2.046875 -0.015625 2.035156 0 2.015625 0 L 0.109375 0 C 0.0976562 0 0.0859375 -0.015625 0.078125 -0.046875 C 0.078125 -0.078125 0.078125 -0.0976562 0.078125 -0.109375 C 0.078125 -0.117188 0.078125 -0.132812 0.078125 -0.15625 C 0.0859375 -0.1875 0.0976562 -0.207031 0.109375 -0.21875 C 0.140625 -0.226562 0.179688 -0.238281 0.234375 -0.25 C 0.296875 -0.257812 0.359375 -0.273438 0.421875 -0.296875 C 0.484375 -0.328125 0.535156 -0.367188 0.578125 -0.421875 C 0.617188 -0.472656 0.640625 -0.554688 0.640625 -0.671875 L 0.640625 -4.9375 C 0.640625 -5 0.625 -5.046875 0.59375 -5.078125 C 0.5625 -5.109375 0.519531 -5.128906 0.46875 -5.140625 C 0.425781 -5.160156 0.375 -5.175781 0.3125 -5.1875 C 0.257812 -5.195312 0.207031 -5.210938 0.15625 -5.234375 C 0.125 -5.242188 0.109375 -5.273438 0.109375 -5.328125 C 0.109375 -5.335938 0.109375 -5.351562 0.109375 -5.375 C 0.117188 -5.394531 0.132812 -5.414062 0.15625 -5.4375 L 1.375 -6 C 1.382812 -6.007812 1.394531 -6.015625 1.40625 -6.015625 C 1.414062 -6.023438 1.429688 -6.03125 1.453125 -6.03125 C 1.460938 -6.03125 1.46875 -6.019531 1.46875 -6 C 1.476562 -5.988281 1.484375 -5.96875 1.484375 -5.9375 L 1.484375 -0.671875 C 1.484375 -0.554688 1.503906 -0.472656 1.546875 -0.421875 C 1.597656 -0.367188 1.648438 -0.328125 1.703125 -0.296875 C 1.765625 -0.273438 1.820312 -0.257812 1.875 -0.25 C 1.9375 -0.238281 1.984375 -0.226562 2.015625 -0.21875 C 2.023438 -0.207031 2.035156 -0.1875 2.046875 -0.15625 C 2.054688 -0.132812 2.0625 -0.117188 2.0625 -0.109375 Z M 2.0625 -0.109375 "/></g></g></g><g fill="#002266" fill-opacity="1"><g transform="translate(65.633758, 24.700135)"><g><path d="M 1.34375 -3.546875 C 1.351562 -3.554688 1.363281 -3.5625 1.375 -3.5625 C 1.382812 -3.570312 1.394531 -3.578125 1.40625 -3.578125 C 1.445312 -3.578125 1.46875 -3.546875 1.46875 -3.484375 L 1.46875 -3.09375 C 1.46875 -3.082031 1.472656 -3.070312 1.484375 -3.0625 C 1.492188 -3.0625 1.5 -3.0625 1.5 -3.0625 C 1.519531 -3.0625 1.535156 -3.0625 1.546875 -3.0625 C 1.554688 -3.070312 1.566406 -3.078125 1.578125 -3.078125 C 1.671875 -3.140625 1.753906 -3.191406 1.828125 -3.234375 C 1.910156 -3.273438 1.988281 -3.304688 2.0625 -3.328125 C 2.132812 -3.347656 2.207031 -3.363281 2.28125 -3.375 C 2.351562 -3.382812 2.4375 -3.390625 2.53125 -3.390625 C 2.738281 -3.390625 2.925781 -3.335938 3.09375 -3.234375 C 3.257812 -3.140625 3.398438 -3.007812 3.515625 -2.84375 C 3.628906 -2.6875 3.71875 -2.507812 3.78125 -2.3125 C 3.84375 -2.113281 3.875 -1.910156 3.875 -1.703125 C 3.875 -1.554688 3.851562 -1.410156 3.8125 -1.265625 C 3.769531 -1.117188 3.707031 -0.976562 3.625 -0.84375 C 3.550781 -0.707031 3.460938 -0.582031 3.359375 -0.46875 C 3.265625 -0.351562 3.15625 -0.253906 3.03125 -0.171875 C 2.90625 -0.0859375 2.769531 -0.0234375 2.625 0.015625 C 2.488281 0.0664062 2.347656 0.09375 2.203125 0.09375 C 2.085938 0.09375 1.976562 0.0859375 1.875 0.078125 C 1.769531 0.0664062 1.65625 0.046875 1.53125 0.015625 C 1.488281 0.015625 1.46875 0.03125 1.46875 0.0625 C 1.46875 0.09375 1.46875 0.125 1.46875 0.15625 L 1.46875 1.640625 C 1.46875 1.710938 1.476562 1.769531 1.5 1.8125 C 1.53125 1.863281 1.570312 1.90625 1.625 1.9375 C 1.675781 1.96875 1.726562 1.988281 1.78125 2 C 1.84375 2.019531 1.898438 2.035156 1.953125 2.046875 C 2.003906 2.054688 2.050781 2.0625 2.09375 2.0625 C 2.132812 2.070312 2.164062 2.082031 2.1875 2.09375 C 2.21875 2.101562 2.234375 2.117188 2.234375 2.140625 C 2.234375 2.171875 2.21875 2.191406 2.1875 2.203125 L 0.078125 2.203125 C 0.0546875 2.191406 0.046875 2.171875 0.046875 2.140625 C 0.046875 2.117188 0.0546875 2.101562 0.078125 2.09375 C 0.109375 2.070312 0.148438 2.054688 0.203125 2.046875 C 0.265625 2.046875 0.328125 2.03125 0.390625 2 C 0.453125 1.976562 0.503906 1.9375 0.546875 1.875 C 0.585938 1.820312 0.609375 1.742188 0.609375 1.640625 L 0.609375 -2.546875 C 0.609375 -2.597656 0.59375 -2.640625 0.5625 -2.671875 C 0.53125 -2.710938 0.488281 -2.738281 0.4375 -2.75 C 0.394531 -2.769531 0.34375 -2.785156 0.28125 -2.796875 C 0.226562 -2.804688 0.175781 -2.816406 0.125 -2.828125 C 0.113281 -2.835938 0.101562 -2.847656 0.09375 -2.859375 C 0.0820312 -2.867188 0.078125 -2.882812 0.078125 -2.90625 C 0.078125 -2.914062 0.078125 -2.925781 0.078125 -2.9375 C 0.0859375 -2.957031 0.101562 -2.972656 0.125 -2.984375 Z M 2.203125 -2.984375 C 2.078125 -2.984375 1.957031 -2.960938 1.84375 -2.921875 C 1.738281 -2.890625 1.628906 -2.832031 1.515625 -2.75 C 1.515625 -2.738281 1.507812 -2.726562 1.5 -2.71875 C 1.488281 -2.71875 1.484375 -2.71875 1.484375 -2.71875 L 1.46875 -2.6875 L 1.46875 -0.734375 C 1.46875 -0.722656 1.46875 -0.703125 1.46875 -0.671875 C 1.46875 -0.640625 1.46875 -0.613281 1.46875 -0.59375 C 1.476562 -0.539062 1.507812 -0.488281 1.5625 -0.4375 C 1.625 -0.394531 1.691406 -0.359375 1.765625 -0.328125 C 1.835938 -0.304688 1.910156 -0.285156 1.984375 -0.265625 C 2.054688 -0.242188 2.113281 -0.234375 2.15625 -0.234375 C 2.3125 -0.234375 2.445312 -0.265625 2.5625 -0.328125 C 2.675781 -0.390625 2.765625 -0.46875 2.828125 -0.5625 C 2.898438 -0.664062 2.953125 -0.78125 2.984375 -0.90625 C 3.015625 -1.039062 3.03125 -1.179688 3.03125 -1.328125 C 3.03125 -1.441406 3.019531 -1.5625 3 -1.6875 C 2.988281 -1.8125 2.96875 -1.9375 2.9375 -2.0625 C 2.914062 -2.1875 2.882812 -2.300781 2.84375 -2.40625 C 2.800781 -2.519531 2.75 -2.617188 2.6875 -2.703125 C 2.632812 -2.785156 2.566406 -2.851562 2.484375 -2.90625 C 2.398438 -2.957031 2.304688 -2.984375 2.203125 -2.984375 Z M 2.203125 -2.984375 "/></g></g></g></svg>